# xmcd
#
# Track frame offsets:
#	150
#	17183
#	31616
#	46615
#	56430
#	68026
#	87079
#	100605
#	114248
#	127970
#	149713
#	161946
#	171643
#	185574
#	198447
#	214028
#	227432
#	240903
#	256468
#	270599
#
# Disc length: 3789 seconds
#
# Revision: 7
# Processed by: cddbd v1.5.2PL0 Copyright (c) Steve Scherf et al.
# Submitted via: EasyCDDAExtractor 10.0.2.1
#
DISCID=0c0ecb14
DTITLE=Waylon Jennings - RCA Country Legends [CD2]
DYEAR=2001
DGENRE=Country
TTITLE0=Can't You See
TTITLE1=Are You Ready For The Country
TTITLE2=Luckenbach, Texas (Back To The Basics Of Love)
TTITLE3=The Wurlitzer Prize (I Don't Want To Get Over You)
TTITLE4=Mammas Don't Let Your Babies Grow Up To Be Cowboys
TTITLE5=I've Always Been Crazy
TTITLE6=Don't You Think This Outlaw Bit's Done Got Out Of Hand
TTITLE7=Amanda
TTITLE8=Come With Me
TTITLE9=I Ain't Living Long Like This
TTITLE10=Clyde
TTITLE11=Theme From The Dukes Of Hazzard (Good Ol' Boys)
TTITLE12=Storms Never Last (With Jesse Colter)
TTITLE13=Shine
TTITLE14=Lucille (You Won't Do Your Daddy's Will)
TTITLE15=I May Be Used (But Baby I Ain't Used Up)
TTITLE16=Never Could Toe The Mark
TTITLE17=America
TTITLE18=Waltz Me To Heaven
TTITLE19=Drinkin' And Dreaming
EXTD=Buddha Records
EXTT0=
EXTT1=
EXTT2=
EXTT3=
EXTT4=
EXTT5=
EXTT6=
EXTT7=
EXTT8=
EXTT9=
EXTT10=
EXTT11=
EXTT12=
EXTT13=
EXTT14=
EXTT15=
EXTT16=
EXTT17=
EXTT18=
EXTT19=
PLAYORDER=
